<?xml version="1.0" standalone="no"?>
<!DOCTYPE svg PUBLIC "-//W3C//DTD SVG 20010904//EN"
 "http://www.w3.org/TR/2001/REC-SVG-20010904/DTD/svg10.dtd">
<svg version="1.0" xmlns="http://www.w3.org/2000/svg"
 width="1024.000000pt" height="1024.000000pt" viewBox="0 0 1024.000000 1024.000000"
 preserveAspectRatio="xMidYMid meet">

<g transform="translate(0.000000,1024.000000) scale(0.100000,-0.100000)"
fill="#000000" stroke="none">
<path d="M0 5120 l0 -5120 5120 0 5120 0 0 5120 0 5120 -5120 0 -5120 0 0
-5120z m8430 1985 l0 -125 -125 0 -125 0 0 125 0 125 125 0 125 0 0 -125z
m-6356 105 c79 -30 143 -135 135 -224 l-4 -41 393 -390 392 -390 395 395 395
395 0 53 c0 124 83 212 199 212 61 0 97 -13 134 -48 99 -93 88 -259 -21 -336
-52 -37 -141 -47 -189 -23 l-29 16 -420 -420 -419 -419 -51 0 -52 0 -414 419
c-404 408 -415 418 -439 405 -29 -16 -107 -18 -146 -3 -15 5 -43 25 -62 42
-140 133 -60 365 126 367 28 0 63 -4 77 -10z m3387 -72 c26 -48 793 -2377 785
-2385 -2 -2 -81 -2 -177 -1 l-174 3 99 108 99 108 5 69 5 68 -165 178 c-91 99
-207 226 -260 283 l-94 103 -169 474 c-93 260 -173 468 -176 461 -4 -7 -80
-223 -170 -480 l-163 -468 -231 -246 c-307 -328 -284 -298 -290 -379 l-6 -69
103 -107 104 -108 -178 0 c-98 0 -178 1 -178 3 0 2 62 187 138 413 77 225 257
763 401 1196 235 705 265 787 284 790 12 2 107 2 211 1 143 -2 191 -5 197 -15z
m2244 -20 c114 -39 196 -91 280 -179 260 -272 242 -684 -38 -884 l-28 -20 63
-30 c132 -63 245 -221 283 -398 26 -120 17 -276 -22 -388 -72 -207 -223 -355
-440 -433 l-88 -31 -657 -3 -658 -3 0 1203 0 1203 612 -5 613 -5 80 -27z m985
-438 l0 -130 -125 0 -125 0 0 130 0 130 125 0 125 0 0 -130z m-6155 -436 l449
-455 456 456 456 456 75 -3 74 -3 0 -972 0 -973 -182 0 -183 0 0 708 0 707
-348 -354 -347 -354 -335 337 c-184 186 -336 342 -338 347 -18 49 -22 -71 -22
-691 l0 -700 -180 0 -180 0 0 975 0 975 78 0 79 0 448 -456z m2865 -443 c31
-5 44 -12 42 -22 -6 -22 -330 -1075 -358 -1161 -14 -43 -31 -78 -37 -78 -31 0
-137 23 -137 30 0 4 59 199 131 431 72 233 158 513 192 622 l61 197 30 -5 c17
-3 51 -9 76 -14z m610 -762 c0 -13 -418 -429 -431 -429 -2 0 -3 44 -1 99 l3
99 120 107 c66 59 119 111 117 115 -2 5 -54 62 -115 128 l-113 120 0 99 0 98
210 -210 c116 -115 210 -217 210 -226z m-1124 389 c-3 -18 -8 -64 -12 -103
l-6 -69 -109 -114 -108 -114 57 -52 c31 -29 76 -70 100 -91 l43 -38 -7 -86
c-4 -47 -8 -88 -11 -91 -2 -2 -82 74 -178 170 -134 133 -175 181 -175 200 0
19 46 71 197 222 109 109 201 198 206 198 4 0 6 -15 3 -32z m-2765 -1319 l86
-150 84 150 84 150 53 1 52 0 0 -275 0 -275 -50 0 -50 0 -2 181 -3 181 -71
-128 c-63 -116 -73 -129 -100 -132 -28 -3 -32 3 -103 133 -40 74 -74 135 -75
135 -2 0 -1 -83 0 -185 l3 -185 -49 0 -50 0 0 275 0 275 53 0 52 0 86 -151z
m671 -31 c2 -152 6 -189 21 -215 45 -84 171 -83 211 1 13 28 16 68 16 215 l0
181 50 0 50 0 0 -192 c0 -110 -5 -210 -11 -233 -14 -51 -73 -110 -124 -124
-87 -24 -201 -3 -247 46 -58 63 -62 81 -66 301 l-4 202 50 0 50 0 4 -182z
m668 72 l0 -110 125 0 125 0 0 110 0 110 55 0 55 0 0 -275 0 -275 -55 0 -55 0
0 115 0 115 -125 0 -125 0 0 -115 0 -115 -50 0 -50 0 0 275 0 275 50 0 50 0 0
-110z m893 -58 c32 -92 76 -216 97 -275 l38 -108 -56 3 -56 3 -20 63 -20 62
-97 0 -97 0 -22 -65 -22 -65 -52 0 -53 0 96 275 96 275 55 0 55 0 58 -168z
m491 21 c44 -79 84 -143 87 -143 4 0 44 65 89 145 l81 145 50 0 49 0 0 -275 0
-275 -51 0 -52 0 5 185 c3 102 3 185 2 185 -1 0 -26 -44 -55 -97 -87 -161 -96
-175 -126 -171 -22 3 -37 23 -99 138 l-74 135 0 -188 0 -187 -50 0 -50 0 0
275 0 276 57 -3 56 -3 81 -142z m716 2 c45 -80 86 -143 90 -140 5 3 44 68 87
145 l78 140 48 0 47 0 0 -275 0 -275 -51 0 -52 0 8 183 c4 100 4 179 -1 175
-4 -4 -37 -63 -73 -130 -60 -112 -69 -123 -96 -126 -29 -3 -32 2 -97 125 l-68
128 0 -177 0 -178 -49 0 -49 0 0 275 -1 275 49 0 48 0 82 -145z m850 100 l0
-45 -115 0 -115 0 0 -65 0 -65 105 0 105 0 0 -45 0 -45 -105 0 -105 0 0 -75 0
-75 115 0 115 0 0 -45 0 -45 -160 0 -160 0 0 275 0 275 160 0 160 0 0 -45z
m485 18 c52 -27 79 -58 104 -113 62 -144 18 -311 -99 -375 -51 -28 -63 -30
-182 -33 l-128 -4 0 277 0 277 133 -4 c111 -3 138 -7 172 -25z m851 -243 c51
-146 94 -268 94 -272 0 -5 -24 -8 -53 -8 l-53 0 -20 63 -20 62 -99 0 -99 0
-20 -62 -20 -63 -53 0 -53 0 61 173 c33 94 77 218 97 275 l36 103 54 -3 54 -3
94 -265z m324 39 l0 -230 95 3 95 3 0 -47 0 -48 -145 0 -145 0 0 275 0 275 50
0 50 0 0 -231z m440 -44 l0 -275 -55 0 -55 0 0 275 0 275 55 0 55 0 0 -275z
m-3270 -629 c0 -28 3 -81 6 -117 l7 -67 46 57 c25 32 69 85 96 119 l50 61 63
0 64 1 -29 -34 c-15 -19 -61 -73 -101 -120 l-74 -85 23 -33 c13 -18 60 -85
106 -149 46 -65 83 -120 83 -123 0 -3 -26 -6 -59 -6 l-59 0 -83 120 c-46 66
-86 120 -90 120 -3 0 -14 -10 -25 -21 -16 -18 -19 -37 -19 -118 l0 -96 -47 -3
-48 -3 0 278 0 278 45 -3 45 -4 0 -52z m1149 29 c59 -35 76 -67 76 -146 0 -69
-1 -71 -41 -108 -22 -21 -47 -40 -55 -43 -10 -4 0 -26 42 -89 30 -46 64 -96
73 -111 l18 -28 -60 0 -61 0 -61 105 c-62 105 -62 105 -101 105 l-39 0 0 -105
0 -105 -45 0 -45 0 0 278 0 277 132 -5 c109 -4 139 -9 167 -25z m-2162 14 c93
-35 119 -152 48 -219 l-24 -22 40 -38 c26 -25 39 -46 41 -66 4 -91 -17 -135
-80 -166 -36 -17 -69 -22 -183 -26 l-139 -5 0 277 0 276 134 0 c74 0 147 -5
163 -11z m649 -254 c51 -143 93 -266 93 -273 1 -9 -13 -12 -51 -10 l-53 3 -19
63 -20 62 -100 0 -101 0 -20 -62 -20 -63 -53 -3 c-28 -2 -52 -1 -52 1 0 2 43
124 95 272 52 147 95 270 95 272 0 2 25 3 57 1 l56 -3 93 -260z m986 -10 l-3
-275 -49 0 -50 0 0 275 0 275 53 0 52 0 -3 -275z"/>
<path d="M1970 7087 c-54 -27 -63 -94 -20 -137 46 -46 130 -8 130 58 -1 41
-13 63 -47 80 -27 15 -32 15 -63 -1z"/>
<path d="M3931 7074 c-40 -33 -43 -83 -6 -119 51 -52 135 -15 135 59 0 26 -7
40 -31 60 -17 14 -39 26 -49 26 -10 0 -32 -12 -49 -26z"/>
<path d="M6780 6475 l0 -286 403 3 402 3 47 27 c98 58 144 149 136 272 -8 113
-59 195 -150 240 l-52 26 -393 0 -393 0 0 -285z"/>
<path d="M6780 5476 l0 -336 433 0 432 0 50 24 c63 30 127 96 157 161 19 41
23 67 23 145 0 82 -4 103 -26 150 -34 71 -89 126 -158 159 l-56 26 -427 3
-428 3 0 -335z"/>
<path d="M4206 4043 c-16 -49 -31 -94 -33 -100 -4 -10 13 -13 65 -13 l70 0
-32 100 c-17 55 -33 100 -36 100 -3 0 -19 -39 -34 -87z"/>
<path d="M6684 4154 c3 -9 6 -92 6 -186 l0 -170 65 4 c111 7 158 58 163 176 2
65 -1 83 -20 117 -31 53 -76 75 -157 75 -53 0 -62 -2 -57 -16z"/>
<path d="M7562 4038 c-18 -51 -32 -96 -32 -100 0 -5 29 -8 65 -8 36 0 65 4 65
8 0 10 -58 184 -63 189 -2 1 -18 -39 -35 -89z"/>
<path d="M6180 3240 l0 -80 70 0 c62 0 74 3 95 25 16 15 25 36 25 55 0 19 -9
40 -25 55 -21 22 -33 25 -95 25 l-70 0 0 -80z"/>
<path d="M4030 3255 l0 -65 75 0 c85 0 115 18 115 68 0 48 -26 62 -113 62
l-77 0 0 -65z"/>
<path d="M4024 3099 c-2 -3 -2 -37 0 -75 l4 -69 74 -3 c63 -2 78 0 101 18 21
17 27 30 27 59 0 57 -20 69 -118 73 -46 2 -86 0 -88 -3z"/>
<path d="M4692 3192 c-18 -54 -32 -101 -32 -105 0 -4 31 -7 69 -7 l68 0 -34
103 c-19 56 -36 103 -37 104 -1 1 -16 -42 -34 -95z"/>
</g>
</svg>
